G04 #@! TF.FileFunction,Soldermask,Top*
%FSLAX46Y46*%
G04 Gerber Fmt 4.6, Leading zero omitted, Abs format (unit mm)*
G04 Created by KiCad (PCBNEW 4.0.7-e2-6376~61~ubuntu18.04.1) date Thu Aug  2 13:47:33 2018*
%MOMM*%
%LPD*%
G01*
G04 APERTURE LIST*
%ADD10C,0.100000*%
%ADD11R,0.899160X1.000760*%
%ADD12R,1.000760X0.899160*%
%ADD13R,1.800000X1.300000*%
%ADD14O,1.800000X1.300000*%
%ADD15R,1.000760X1.000760*%
%ADD16R,0.419100X1.470660*%
%ADD17O,1.000000X1.000000*%
%ADD18O,2.500000X1.000000*%
%ADD19C,1.200000*%
%ADD20R,0.797560X0.797560*%
%ADD21R,1.000000X0.600000*%
G04 APERTURE END LIST*
D10*
D11*
X178648160Y-82200000D03*
X180151840Y-82200000D03*
D12*
X179500000Y-77751840D03*
X179500000Y-76248160D03*
D11*
X182451840Y-76300000D03*
X180948160Y-76300000D03*
X180151840Y-79200000D03*
X178648160Y-79200000D03*
X180151840Y-80700000D03*
X178648160Y-80700000D03*
D12*
X187940000Y-74818160D03*
X187940000Y-76321840D03*
D11*
X182451840Y-74800000D03*
X180948160Y-74800000D03*
D13*
X173750000Y-84500000D03*
D14*
X171250000Y-84500000D03*
X173750000Y-82500000D03*
X171250000Y-82500000D03*
X173750000Y-80500000D03*
X171250000Y-80500000D03*
D12*
X178000000Y-77751840D03*
X178000000Y-76248160D03*
D11*
X175568160Y-85090000D03*
X177071840Y-85090000D03*
X175578160Y-83600000D03*
X177081840Y-83600000D03*
D15*
X176499180Y-76300000D03*
X169300820Y-76300000D03*
D16*
X184174880Y-83599080D03*
X184825120Y-83599080D03*
X185475360Y-83599080D03*
X186125600Y-83599080D03*
X182234320Y-78006000D03*
X182224160Y-83599080D03*
X182874400Y-83599080D03*
X183524640Y-83599080D03*
X186775840Y-78000920D03*
X186125600Y-78000920D03*
X185475360Y-78000920D03*
X184825120Y-78000920D03*
X184174880Y-78000920D03*
X183524640Y-78000920D03*
X186775840Y-83599080D03*
X182874400Y-78006000D03*
X181573920Y-83599080D03*
X187426080Y-83599080D03*
X187426080Y-78000920D03*
X181573920Y-78000920D03*
D17*
X189500000Y-76500000D03*
X189500000Y-83500000D03*
X189500000Y-81000000D03*
D18*
X191600000Y-74150000D03*
X191600000Y-85850000D03*
D17*
X189500000Y-79000000D03*
D19*
X191600000Y-77700000D03*
X191600000Y-82300000D03*
D20*
X178340700Y-85090000D03*
X179839300Y-85090000D03*
X178310700Y-83800000D03*
X179809300Y-83800000D03*
D21*
X186270000Y-76420000D03*
X184150000Y-75470000D03*
X186270000Y-74520000D03*
M02*
