G04 #@! TF.FileFunction,Copper,L2,Bot,Signal*
%FSLAX46Y46*%
G04 Gerber Fmt 4.6, Leading zero omitted, Abs format (unit mm)*
G04 Created by KiCad (PCBNEW 4.0.7-e2-6376~61~ubuntu18.04.1) date Thu Aug  2 13:47:33 2018*
%MOMM*%
%LPD*%
G01*
G04 APERTURE LIST*
%ADD10C,0.100000*%
%ADD11R,1.800000X1.300000*%
%ADD12O,1.800000X1.300000*%
%ADD13O,1.000000X1.000000*%
%ADD14O,2.500000X1.000000*%
%ADD15C,1.200000*%
%ADD16C,0.600000*%
%ADD17C,0.200000*%
%ADD18C,0.400000*%
%ADD19C,0.254000*%
G04 APERTURE END LIST*
D10*
D11*
X173750000Y-84500000D03*
D12*
X171250000Y-84500000D03*
X173750000Y-82500000D03*
X171250000Y-82500000D03*
X173750000Y-80500000D03*
X171250000Y-80500000D03*
D13*
X189500000Y-76500000D03*
X189500000Y-83500000D03*
X189500000Y-81000000D03*
D14*
X191600000Y-74150000D03*
X191600000Y-85850000D03*
D13*
X189500000Y-79000000D03*
D15*
X191600000Y-77700000D03*
X191600000Y-82300000D03*
D16*
X177550000Y-79100000D03*
X180690000Y-77280000D03*
X188480000Y-82480000D03*
X182730000Y-81720000D03*
X185030000Y-76480000D03*
X180740000Y-78190000D03*
X176550000Y-78270000D03*
X173870000Y-78440000D03*
X181540000Y-79330000D03*
X174700000Y-79160000D03*
X182550000Y-79940000D03*
X176860000Y-82130000D03*
X180770000Y-83270000D03*
D17*
X176490000Y-79100000D02*
X177550000Y-79100000D01*
X175710000Y-78320000D02*
X176490000Y-79100000D01*
X175710000Y-77420000D02*
X175710000Y-78320000D01*
X175910000Y-77220000D02*
X175710000Y-77420000D01*
X180630000Y-77220000D02*
X175910000Y-77220000D01*
X180690000Y-77280000D02*
X180630000Y-77220000D01*
X173500000Y-80500000D02*
X175410000Y-80500000D01*
X182440000Y-81720000D02*
X182730000Y-81720000D01*
X181490000Y-80770000D02*
X182440000Y-81720000D01*
X175680000Y-80770000D02*
X181490000Y-80770000D01*
X175410000Y-80500000D02*
X175680000Y-80770000D01*
X180740000Y-78190000D02*
X183320000Y-78190000D01*
X183320000Y-78190000D02*
X185030000Y-76480000D01*
X176630000Y-78190000D02*
X180740000Y-78190000D01*
X176550000Y-78270000D02*
X176630000Y-78190000D01*
D18*
X171500000Y-80500000D02*
X171500000Y-76300000D01*
X187940000Y-74940000D02*
X189500000Y-76500000D01*
X172860000Y-74940000D02*
X187940000Y-74940000D01*
X171500000Y-76300000D02*
X172860000Y-74940000D01*
D17*
X173870000Y-78440000D02*
X174980000Y-78440000D01*
X174980000Y-78440000D02*
X176260000Y-79720000D01*
X176260000Y-79720000D02*
X181150000Y-79720000D01*
X181150000Y-79720000D02*
X181540000Y-79330000D01*
X174700000Y-79160000D02*
X175700000Y-80160000D01*
X175700000Y-80160000D02*
X182330000Y-80160000D01*
X182330000Y-80160000D02*
X182550000Y-79940000D01*
X179630000Y-82130000D02*
X176860000Y-82130000D01*
X180770000Y-83270000D02*
X179630000Y-82130000D01*
D19*
G36*
X193973000Y-85873000D02*
X168827000Y-85873000D01*
X168827000Y-80500000D01*
X169897003Y-80500000D01*
X169978985Y-80912150D01*
X170212449Y-81261554D01*
X170561853Y-81495018D01*
X170713072Y-81525097D01*
X170581966Y-81551176D01*
X170248783Y-81773801D01*
X170026158Y-82106984D01*
X169947982Y-82500000D01*
X170026158Y-82893016D01*
X170248783Y-83226199D01*
X170581966Y-83448824D01*
X170839244Y-83500000D01*
X170581966Y-83551176D01*
X170248783Y-83773801D01*
X170026158Y-84106984D01*
X169947982Y-84500000D01*
X170026158Y-84893016D01*
X170248783Y-85226199D01*
X170581966Y-85448824D01*
X170974982Y-85527000D01*
X171525018Y-85527000D01*
X171918034Y-85448824D01*
X172251217Y-85226199D01*
X172473842Y-84893016D01*
X172552018Y-84500000D01*
X172473842Y-84106984D01*
X172251217Y-83773801D01*
X171918034Y-83551176D01*
X171660756Y-83500000D01*
X171918034Y-83448824D01*
X172251217Y-83226199D01*
X172473842Y-82893016D01*
X172552018Y-82500000D01*
X172505090Y-82264073D01*
X176182883Y-82264073D01*
X176285733Y-82512989D01*
X176476010Y-82703598D01*
X176724746Y-82806882D01*
X176994073Y-82807117D01*
X177242989Y-82704267D01*
X177340426Y-82607000D01*
X179432420Y-82607000D01*
X180093002Y-83267582D01*
X180092883Y-83404073D01*
X180195733Y-83652989D01*
X180386010Y-83843598D01*
X180634746Y-83946882D01*
X180904073Y-83947117D01*
X181152989Y-83844267D01*
X181343598Y-83653990D01*
X181446882Y-83405254D01*
X181447117Y-83135927D01*
X181344267Y-82887011D01*
X181153990Y-82696402D01*
X180905254Y-82593118D01*
X180767578Y-82592998D01*
X179967290Y-81792710D01*
X179812540Y-81689309D01*
X179630000Y-81653000D01*
X177340420Y-81653000D01*
X177243990Y-81556402D01*
X176995254Y-81453118D01*
X176725927Y-81452883D01*
X176477011Y-81555733D01*
X176286402Y-81746010D01*
X176183118Y-81994746D01*
X176182883Y-82264073D01*
X172505090Y-82264073D01*
X172473842Y-82106984D01*
X172251217Y-81773801D01*
X171918034Y-81551176D01*
X171786928Y-81525097D01*
X171938147Y-81495018D01*
X172287551Y-81261554D01*
X172521015Y-80912150D01*
X172525490Y-80889655D01*
X172526158Y-80893016D01*
X172748783Y-81226199D01*
X173081966Y-81448824D01*
X173474982Y-81527000D01*
X174025018Y-81527000D01*
X174418034Y-81448824D01*
X174751217Y-81226199D01*
X174917726Y-80977000D01*
X175212420Y-80977000D01*
X175342710Y-81107290D01*
X175497460Y-81210691D01*
X175680000Y-81247000D01*
X181292420Y-81247000D01*
X182102710Y-82057290D01*
X182149871Y-82088802D01*
X182155733Y-82102989D01*
X182346010Y-82293598D01*
X182594746Y-82396882D01*
X182864073Y-82397117D01*
X183112989Y-82294267D01*
X183303598Y-82103990D01*
X183406882Y-81855254D01*
X183407117Y-81585927D01*
X183304267Y-81337011D01*
X183113990Y-81146402D01*
X182865254Y-81043118D01*
X182595927Y-81042883D01*
X182483795Y-81089215D01*
X182394580Y-81000000D01*
X188605819Y-81000000D01*
X188672577Y-81335613D01*
X188862686Y-81620133D01*
X189147206Y-81810242D01*
X189482819Y-81877000D01*
X189517181Y-81877000D01*
X189852794Y-81810242D01*
X190137314Y-81620133D01*
X190327423Y-81335613D01*
X190394181Y-81000000D01*
X190327423Y-80664387D01*
X190137314Y-80379867D01*
X189852794Y-80189758D01*
X189517181Y-80123000D01*
X189482819Y-80123000D01*
X189147206Y-80189758D01*
X188862686Y-80379867D01*
X188672577Y-80664387D01*
X188605819Y-81000000D01*
X182394580Y-81000000D01*
X182031580Y-80637000D01*
X182330000Y-80637000D01*
X182431070Y-80616896D01*
X182684073Y-80617117D01*
X182932989Y-80514267D01*
X183123598Y-80323990D01*
X183226882Y-80075254D01*
X183227117Y-79805927D01*
X183124267Y-79557011D01*
X182933990Y-79366402D01*
X182685254Y-79263118D01*
X182415927Y-79262883D01*
X182216987Y-79345083D01*
X182217117Y-79195927D01*
X182136162Y-79000000D01*
X188605819Y-79000000D01*
X188672577Y-79335613D01*
X188862686Y-79620133D01*
X189147206Y-79810242D01*
X189482819Y-79877000D01*
X189517181Y-79877000D01*
X189852794Y-79810242D01*
X190137314Y-79620133D01*
X190327423Y-79335613D01*
X190394181Y-79000000D01*
X190327423Y-78664387D01*
X190137314Y-78379867D01*
X189852794Y-78189758D01*
X189517181Y-78123000D01*
X189482819Y-78123000D01*
X189147206Y-78189758D01*
X188862686Y-78379867D01*
X188672577Y-78664387D01*
X188605819Y-79000000D01*
X182136162Y-79000000D01*
X182114267Y-78947011D01*
X181923990Y-78756402D01*
X181708686Y-78667000D01*
X183320000Y-78667000D01*
X183502540Y-78630691D01*
X183657290Y-78527290D01*
X185027582Y-77156998D01*
X185164073Y-77157117D01*
X185412989Y-77054267D01*
X185603598Y-76863990D01*
X185706882Y-76615254D01*
X185707117Y-76345927D01*
X185604267Y-76097011D01*
X185413990Y-75906402D01*
X185165254Y-75803118D01*
X184895927Y-75802883D01*
X184647011Y-75905733D01*
X184456402Y-76096010D01*
X184353118Y-76344746D01*
X184352998Y-76482422D01*
X183122420Y-77713000D01*
X181220420Y-77713000D01*
X181123990Y-77616402D01*
X180875254Y-77513118D01*
X180605927Y-77512883D01*
X180357011Y-77615733D01*
X180259574Y-77713000D01*
X176950559Y-77713000D01*
X176933990Y-77696402D01*
X176685254Y-77593118D01*
X176415927Y-77592883D01*
X176167011Y-77695733D01*
X175976402Y-77886010D01*
X175873118Y-78134746D01*
X175872883Y-78404073D01*
X175975733Y-78652989D01*
X176166010Y-78843598D01*
X176414746Y-78946882D01*
X176684073Y-78947117D01*
X176932989Y-78844267D01*
X177110565Y-78667000D01*
X180259580Y-78667000D01*
X180356010Y-78763598D01*
X180604746Y-78866882D01*
X180874073Y-78867117D01*
X181122989Y-78764267D01*
X181220426Y-78667000D01*
X181371761Y-78667000D01*
X181157011Y-78755733D01*
X180966402Y-78946010D01*
X180863118Y-79194746D01*
X180863076Y-79243000D01*
X176457580Y-79243000D01*
X175317290Y-78102710D01*
X175162540Y-77999309D01*
X174980000Y-77963000D01*
X174350420Y-77963000D01*
X174253990Y-77866402D01*
X174005254Y-77763118D01*
X173735927Y-77762883D01*
X173487011Y-77865733D01*
X173296402Y-78056010D01*
X173193118Y-78304746D01*
X173192883Y-78574073D01*
X173295733Y-78822989D01*
X173486010Y-79013598D01*
X173734746Y-79116882D01*
X174004073Y-79117117D01*
X174023044Y-79109278D01*
X174022883Y-79294073D01*
X174103243Y-79488560D01*
X174025018Y-79473000D01*
X173474982Y-79473000D01*
X173081966Y-79551176D01*
X172748783Y-79773801D01*
X172526158Y-80106984D01*
X172525490Y-80110345D01*
X172521015Y-80087850D01*
X172287551Y-79738446D01*
X172127000Y-79631169D01*
X172127000Y-76559712D01*
X173119712Y-75567000D01*
X187680288Y-75567000D01*
X188564536Y-76451248D01*
X188554839Y-76500000D01*
X188625403Y-76854748D01*
X188826351Y-77155488D01*
X189127091Y-77356436D01*
X189481839Y-77427000D01*
X189518161Y-77427000D01*
X189872909Y-77356436D01*
X190173649Y-77155488D01*
X190374597Y-76854748D01*
X190445161Y-76500000D01*
X190374597Y-76145252D01*
X190173649Y-75844512D01*
X189872909Y-75643564D01*
X189518161Y-75573000D01*
X189481839Y-75573000D01*
X189463383Y-75576671D01*
X188383356Y-74496644D01*
X188179943Y-74360728D01*
X187940000Y-74313000D01*
X172860000Y-74313000D01*
X172620057Y-74360728D01*
X172416644Y-74496644D01*
X171056644Y-75856644D01*
X170920728Y-76060057D01*
X170873000Y-76300000D01*
X170873000Y-79443091D01*
X170561853Y-79504982D01*
X170212449Y-79738446D01*
X169978985Y-80087850D01*
X169897003Y-80500000D01*
X168827000Y-80500000D01*
X168827000Y-74117000D01*
X193973000Y-74117000D01*
X193973000Y-85873000D01*
X193973000Y-85873000D01*
G37*
X193973000Y-85873000D02*
X168827000Y-85873000D01*
X168827000Y-80500000D01*
X169897003Y-80500000D01*
X169978985Y-80912150D01*
X170212449Y-81261554D01*
X170561853Y-81495018D01*
X170713072Y-81525097D01*
X170581966Y-81551176D01*
X170248783Y-81773801D01*
X170026158Y-82106984D01*
X169947982Y-82500000D01*
X170026158Y-82893016D01*
X170248783Y-83226199D01*
X170581966Y-83448824D01*
X170839244Y-83500000D01*
X170581966Y-83551176D01*
X170248783Y-83773801D01*
X170026158Y-84106984D01*
X169947982Y-84500000D01*
X170026158Y-84893016D01*
X170248783Y-85226199D01*
X170581966Y-85448824D01*
X170974982Y-85527000D01*
X171525018Y-85527000D01*
X171918034Y-85448824D01*
X172251217Y-85226199D01*
X172473842Y-84893016D01*
X172552018Y-84500000D01*
X172473842Y-84106984D01*
X172251217Y-83773801D01*
X171918034Y-83551176D01*
X171660756Y-83500000D01*
X171918034Y-83448824D01*
X172251217Y-83226199D01*
X172473842Y-82893016D01*
X172552018Y-82500000D01*
X172505090Y-82264073D01*
X176182883Y-82264073D01*
X176285733Y-82512989D01*
X176476010Y-82703598D01*
X176724746Y-82806882D01*
X176994073Y-82807117D01*
X177242989Y-82704267D01*
X177340426Y-82607000D01*
X179432420Y-82607000D01*
X180093002Y-83267582D01*
X180092883Y-83404073D01*
X180195733Y-83652989D01*
X180386010Y-83843598D01*
X180634746Y-83946882D01*
X180904073Y-83947117D01*
X181152989Y-83844267D01*
X181343598Y-83653990D01*
X181446882Y-83405254D01*
X181447117Y-83135927D01*
X181344267Y-82887011D01*
X181153990Y-82696402D01*
X180905254Y-82593118D01*
X180767578Y-82592998D01*
X179967290Y-81792710D01*
X179812540Y-81689309D01*
X179630000Y-81653000D01*
X177340420Y-81653000D01*
X177243990Y-81556402D01*
X176995254Y-81453118D01*
X176725927Y-81452883D01*
X176477011Y-81555733D01*
X176286402Y-81746010D01*
X176183118Y-81994746D01*
X176182883Y-82264073D01*
X172505090Y-82264073D01*
X172473842Y-82106984D01*
X172251217Y-81773801D01*
X171918034Y-81551176D01*
X171786928Y-81525097D01*
X171938147Y-81495018D01*
X172287551Y-81261554D01*
X172521015Y-80912150D01*
X172525490Y-80889655D01*
X172526158Y-80893016D01*
X172748783Y-81226199D01*
X173081966Y-81448824D01*
X173474982Y-81527000D01*
X174025018Y-81527000D01*
X174418034Y-81448824D01*
X174751217Y-81226199D01*
X174917726Y-80977000D01*
X175212420Y-80977000D01*
X175342710Y-81107290D01*
X175497460Y-81210691D01*
X175680000Y-81247000D01*
X181292420Y-81247000D01*
X182102710Y-82057290D01*
X182149871Y-82088802D01*
X182155733Y-82102989D01*
X182346010Y-82293598D01*
X182594746Y-82396882D01*
X182864073Y-82397117D01*
X183112989Y-82294267D01*
X183303598Y-82103990D01*
X183406882Y-81855254D01*
X183407117Y-81585927D01*
X183304267Y-81337011D01*
X183113990Y-81146402D01*
X182865254Y-81043118D01*
X182595927Y-81042883D01*
X182483795Y-81089215D01*
X182394580Y-81000000D01*
X188605819Y-81000000D01*
X188672577Y-81335613D01*
X188862686Y-81620133D01*
X189147206Y-81810242D01*
X189482819Y-81877000D01*
X189517181Y-81877000D01*
X189852794Y-81810242D01*
X190137314Y-81620133D01*
X190327423Y-81335613D01*
X190394181Y-81000000D01*
X190327423Y-80664387D01*
X190137314Y-80379867D01*
X189852794Y-80189758D01*
X189517181Y-80123000D01*
X189482819Y-80123000D01*
X189147206Y-80189758D01*
X188862686Y-80379867D01*
X188672577Y-80664387D01*
X188605819Y-81000000D01*
X182394580Y-81000000D01*
X182031580Y-80637000D01*
X182330000Y-80637000D01*
X182431070Y-80616896D01*
X182684073Y-80617117D01*
X182932989Y-80514267D01*
X183123598Y-80323990D01*
X183226882Y-80075254D01*
X183227117Y-79805927D01*
X183124267Y-79557011D01*
X182933990Y-79366402D01*
X182685254Y-79263118D01*
X182415927Y-79262883D01*
X182216987Y-79345083D01*
X182217117Y-79195927D01*
X182136162Y-79000000D01*
X188605819Y-79000000D01*
X188672577Y-79335613D01*
X188862686Y-79620133D01*
X189147206Y-79810242D01*
X189482819Y-79877000D01*
X189517181Y-79877000D01*
X189852794Y-79810242D01*
X190137314Y-79620133D01*
X190327423Y-79335613D01*
X190394181Y-79000000D01*
X190327423Y-78664387D01*
X190137314Y-78379867D01*
X189852794Y-78189758D01*
X189517181Y-78123000D01*
X189482819Y-78123000D01*
X189147206Y-78189758D01*
X188862686Y-78379867D01*
X188672577Y-78664387D01*
X188605819Y-79000000D01*
X182136162Y-79000000D01*
X182114267Y-78947011D01*
X181923990Y-78756402D01*
X181708686Y-78667000D01*
X183320000Y-78667000D01*
X183502540Y-78630691D01*
X183657290Y-78527290D01*
X185027582Y-77156998D01*
X185164073Y-77157117D01*
X185412989Y-77054267D01*
X185603598Y-76863990D01*
X185706882Y-76615254D01*
X185707117Y-76345927D01*
X185604267Y-76097011D01*
X185413990Y-75906402D01*
X185165254Y-75803118D01*
X184895927Y-75802883D01*
X184647011Y-75905733D01*
X184456402Y-76096010D01*
X184353118Y-76344746D01*
X184352998Y-76482422D01*
X183122420Y-77713000D01*
X181220420Y-77713000D01*
X181123990Y-77616402D01*
X180875254Y-77513118D01*
X180605927Y-77512883D01*
X180357011Y-77615733D01*
X180259574Y-77713000D01*
X176950559Y-77713000D01*
X176933990Y-77696402D01*
X176685254Y-77593118D01*
X176415927Y-77592883D01*
X176167011Y-77695733D01*
X175976402Y-77886010D01*
X175873118Y-78134746D01*
X175872883Y-78404073D01*
X175975733Y-78652989D01*
X176166010Y-78843598D01*
X176414746Y-78946882D01*
X176684073Y-78947117D01*
X176932989Y-78844267D01*
X177110565Y-78667000D01*
X180259580Y-78667000D01*
X180356010Y-78763598D01*
X180604746Y-78866882D01*
X180874073Y-78867117D01*
X181122989Y-78764267D01*
X181220426Y-78667000D01*
X181371761Y-78667000D01*
X181157011Y-78755733D01*
X180966402Y-78946010D01*
X180863118Y-79194746D01*
X180863076Y-79243000D01*
X176457580Y-79243000D01*
X175317290Y-78102710D01*
X175162540Y-77999309D01*
X174980000Y-77963000D01*
X174350420Y-77963000D01*
X174253990Y-77866402D01*
X174005254Y-77763118D01*
X173735927Y-77762883D01*
X173487011Y-77865733D01*
X173296402Y-78056010D01*
X173193118Y-78304746D01*
X173192883Y-78574073D01*
X173295733Y-78822989D01*
X173486010Y-79013598D01*
X173734746Y-79116882D01*
X174004073Y-79117117D01*
X174023044Y-79109278D01*
X174022883Y-79294073D01*
X174103243Y-79488560D01*
X174025018Y-79473000D01*
X173474982Y-79473000D01*
X173081966Y-79551176D01*
X172748783Y-79773801D01*
X172526158Y-80106984D01*
X172525490Y-80110345D01*
X172521015Y-80087850D01*
X172287551Y-79738446D01*
X172127000Y-79631169D01*
X172127000Y-76559712D01*
X173119712Y-75567000D01*
X187680288Y-75567000D01*
X188564536Y-76451248D01*
X188554839Y-76500000D01*
X188625403Y-76854748D01*
X188826351Y-77155488D01*
X189127091Y-77356436D01*
X189481839Y-77427000D01*
X189518161Y-77427000D01*
X189872909Y-77356436D01*
X190173649Y-77155488D01*
X190374597Y-76854748D01*
X190445161Y-76500000D01*
X190374597Y-76145252D01*
X190173649Y-75844512D01*
X189872909Y-75643564D01*
X189518161Y-75573000D01*
X189481839Y-75573000D01*
X189463383Y-75576671D01*
X188383356Y-74496644D01*
X188179943Y-74360728D01*
X187940000Y-74313000D01*
X172860000Y-74313000D01*
X172620057Y-74360728D01*
X172416644Y-74496644D01*
X171056644Y-75856644D01*
X170920728Y-76060057D01*
X170873000Y-76300000D01*
X170873000Y-79443091D01*
X170561853Y-79504982D01*
X170212449Y-79738446D01*
X169978985Y-80087850D01*
X169897003Y-80500000D01*
X168827000Y-80500000D01*
X168827000Y-74117000D01*
X193973000Y-74117000D01*
X193973000Y-85873000D01*
M02*
