M48
;DRILL file {KiCad 4.0.7-e2-6376~61~ubuntu18.04.1} date Thu Aug  2 13:48:33 2018
;FORMAT={-:-/ absolute / inch / decimal}
FMAT,2
INCH,TZ
T1C0.016
T2C0.031
T3C0.035
T4C0.043
%
G90
G05
M72
T1
X6.8453Y-3.0882
X6.878Y-3.1165
X6.9508Y-3.0815
X6.963Y-3.2335
X6.9902Y-3.1142
X7.1138Y-3.0425
X7.1157Y-3.0783
X7.1169Y-3.2783
X7.1472Y-3.1232
X7.187Y-3.1472
X7.1941Y-3.2173
X7.2846Y-3.011
X7.4205Y-3.2472
T2
X6.752Y-3.1693
X6.752Y-3.248
X6.752Y-3.3268
X6.8307Y-3.1693
X6.8307Y-3.248
X6.8307Y-3.3268
T3
X7.4606Y-3.0118G85X7.4606Y-3.0118
G05
X7.4606Y-3.1102G85X7.4606Y-3.1102
G05
X7.4606Y-3.189G85X7.4606Y-3.189
G05
X7.4606Y-3.2874G85X7.4606Y-3.2874
G05
X7.5728Y-2.9193G85X7.5138Y-2.9193
G05
X7.5728Y-3.3799G85X7.5138Y-3.3799
G05
T4
X7.5433Y-3.0591G85X7.5433Y-3.0591
G05
X7.5433Y-3.2402G85X7.5433Y-3.2402
G05
T0
M30
