G04 #@! TF.FileFunction,Legend,Top*
%FSLAX46Y46*%
G04 Gerber Fmt 4.6, Leading zero omitted, Abs format (unit mm)*
G04 Created by KiCad (PCBNEW 4.0.7-e2-6376~61~ubuntu18.04.1) date Thu Aug  2 13:47:33 2018*
%MOMM*%
%LPD*%
G01*
G04 APERTURE LIST*
%ADD10C,0.100000*%
%ADD11C,0.127000*%
%ADD12C,0.304800*%
%ADD13C,0.254000*%
%ADD14C,0.040640*%
%ADD15C,0.050165*%
%ADD16C,0.119380*%
G04 APERTURE END LIST*
D10*
D11*
X178841200Y-81793600D02*
X178841200Y-82606400D01*
X179958800Y-82581000D02*
X179958800Y-81793600D01*
X180212800Y-82606400D02*
X178587200Y-82606400D01*
X178587200Y-82606400D02*
X178587200Y-81793600D01*
X178587200Y-81793600D02*
X180212800Y-81793600D01*
X180212800Y-81793600D02*
X180212800Y-82606400D01*
X179093600Y-77558800D02*
X179906400Y-77558800D01*
X179881000Y-76441200D02*
X179093600Y-76441200D01*
X179906400Y-76187200D02*
X179906400Y-77812800D01*
X179906400Y-77812800D02*
X179093600Y-77812800D01*
X179093600Y-77812800D02*
X179093600Y-76187200D01*
X179093600Y-76187200D02*
X179906400Y-76187200D01*
X182258800Y-76706400D02*
X182258800Y-75893600D01*
X181141200Y-75919000D02*
X181141200Y-76706400D01*
X180887200Y-75893600D02*
X182512800Y-75893600D01*
X182512800Y-75893600D02*
X182512800Y-76706400D01*
X182512800Y-76706400D02*
X180887200Y-76706400D01*
X180887200Y-76706400D02*
X180887200Y-75893600D01*
X179958800Y-79606400D02*
X179958800Y-78793600D01*
X178841200Y-78819000D02*
X178841200Y-79606400D01*
X178587200Y-78793600D02*
X180212800Y-78793600D01*
X180212800Y-78793600D02*
X180212800Y-79606400D01*
X180212800Y-79606400D02*
X178587200Y-79606400D01*
X178587200Y-79606400D02*
X178587200Y-78793600D01*
X179958800Y-81106400D02*
X179958800Y-80293600D01*
X178841200Y-80319000D02*
X178841200Y-81106400D01*
X178587200Y-80293600D02*
X180212800Y-80293600D01*
X180212800Y-80293600D02*
X180212800Y-81106400D01*
X180212800Y-81106400D02*
X178587200Y-81106400D01*
X178587200Y-81106400D02*
X178587200Y-80293600D01*
X188346400Y-75011200D02*
X187533600Y-75011200D01*
X187559000Y-76128800D02*
X188346400Y-76128800D01*
X187533600Y-76382800D02*
X187533600Y-74757200D01*
X187533600Y-74757200D02*
X188346400Y-74757200D01*
X188346400Y-74757200D02*
X188346400Y-76382800D01*
X188346400Y-76382800D02*
X187533600Y-76382800D01*
X182258800Y-75206400D02*
X182258800Y-74393600D01*
X181141200Y-74419000D02*
X181141200Y-75206400D01*
X180887200Y-74393600D02*
X182512800Y-74393600D01*
X182512800Y-74393600D02*
X182512800Y-75206400D01*
X182512800Y-75206400D02*
X180887200Y-75206400D01*
X180887200Y-75206400D02*
X180887200Y-74393600D01*
D12*
X172500000Y-85500000D02*
X172500000Y-83500000D01*
X170500000Y-79500000D02*
X174500000Y-79500000D01*
X174500000Y-79500000D02*
X174500000Y-85500000D01*
X170500000Y-85500000D02*
X170500000Y-79500000D01*
X174500000Y-85500000D02*
X170500000Y-85500000D01*
X172500000Y-83500000D02*
X174500000Y-83500000D01*
D11*
X177593600Y-77558800D02*
X178406400Y-77558800D01*
X178381000Y-76441200D02*
X177593600Y-76441200D01*
X178406400Y-76187200D02*
X178406400Y-77812800D01*
X178406400Y-77812800D02*
X177593600Y-77812800D01*
X177593600Y-77812800D02*
X177593600Y-76187200D01*
X177593600Y-76187200D02*
X178406400Y-76187200D01*
X175761200Y-84683600D02*
X175761200Y-85496400D01*
X176878800Y-85471000D02*
X176878800Y-84683600D01*
X177132800Y-85496400D02*
X175507200Y-85496400D01*
X175507200Y-85496400D02*
X175507200Y-84683600D01*
X175507200Y-84683600D02*
X177132800Y-84683600D01*
X177132800Y-84683600D02*
X177132800Y-85496400D01*
X175771200Y-83193600D02*
X175771200Y-84006400D01*
X176888800Y-83981000D02*
X176888800Y-83193600D01*
X177142800Y-84006400D02*
X175517200Y-84006400D01*
X175517200Y-84006400D02*
X175517200Y-83193600D01*
X175517200Y-83193600D02*
X177142800Y-83193600D01*
X177142800Y-83193600D02*
X177142800Y-84006400D01*
D13*
X171599520Y-77001040D02*
X170299040Y-77699540D01*
X171599520Y-75598960D02*
X170299040Y-74900460D01*
X174200480Y-75598960D02*
X175500960Y-74900460D01*
X175500960Y-77699540D02*
X174200480Y-77001040D01*
X175500960Y-77699540D02*
X170299040Y-77699540D01*
X170299040Y-77699540D02*
X170299040Y-74900460D01*
X170299040Y-74900460D02*
X175500960Y-74900460D01*
X175500960Y-74900460D02*
X175500960Y-77699540D01*
X174200480Y-77001040D02*
X171599520Y-77001040D01*
X171599520Y-77001040D02*
X171599520Y-75598960D01*
X171599520Y-75598960D02*
X174200480Y-75598960D01*
X174200480Y-75598960D02*
X174200480Y-77001040D01*
X175899740Y-78100860D02*
X169900260Y-78100860D01*
X169900260Y-78100860D02*
X169900260Y-74499140D01*
X169900260Y-74499140D02*
X175899740Y-74499140D01*
X175899740Y-74499140D02*
X175899740Y-78100860D01*
D11*
X187802000Y-78514000D02*
X181198000Y-78514000D01*
X181198000Y-78514000D02*
X181198000Y-83086000D01*
X181198000Y-83086000D02*
X187802000Y-83086000D01*
X187802000Y-83086000D02*
X187802000Y-78514000D01*
X182370981Y-82324000D02*
G75*
G03X182370981Y-82324000I-283981J0D01*
G01*
D10*
X189500000Y-74150000D02*
X194500000Y-74150000D01*
X194500000Y-85850000D02*
X194500000Y-74150000D01*
X189500000Y-85850000D02*
X194500000Y-85850000D01*
X189500000Y-85850000D02*
X189500000Y-74150000D01*
D11*
X179389720Y-85590380D02*
X179389720Y-84589620D01*
X178790280Y-84589620D02*
X178790280Y-85590380D01*
X179090000Y-85189060D02*
X179090000Y-84990940D01*
X178990940Y-84889340D02*
X178990940Y-85290660D01*
X178990940Y-85290660D02*
X179189060Y-85090000D01*
X179189060Y-85090000D02*
X178990940Y-84889340D01*
X178289900Y-84589620D02*
X179890100Y-84589620D01*
X179890100Y-84589620D02*
X179890100Y-85590380D01*
X179890100Y-85590380D02*
X178289900Y-85590380D01*
X178289900Y-85590380D02*
X178289900Y-84589620D01*
X179359720Y-84300380D02*
X179359720Y-83299620D01*
X178760280Y-83299620D02*
X178760280Y-84300380D01*
X179060000Y-83899060D02*
X179060000Y-83700940D01*
X178960940Y-83599340D02*
X178960940Y-84000660D01*
X178960940Y-84000660D02*
X179159060Y-83800000D01*
X179159060Y-83800000D02*
X178960940Y-83599340D01*
X178259900Y-83299620D02*
X179860100Y-83299620D01*
X179860100Y-83299620D02*
X179860100Y-84300380D01*
X179860100Y-84300380D02*
X178259900Y-84300380D01*
X178259900Y-84300380D02*
X178259900Y-83299620D01*
X185908500Y-74517500D02*
X186568900Y-74517500D01*
X185908500Y-76422500D02*
X186568900Y-76422500D01*
X184511500Y-75470000D02*
X183851100Y-75470000D01*
X184511500Y-76968600D02*
X184511500Y-73971400D01*
X184511500Y-73971400D02*
X185908500Y-73971400D01*
X185908500Y-73971400D02*
X185908500Y-76968600D01*
X185908500Y-76968600D02*
X184511500Y-76968600D01*
D14*
X177666557Y-82271664D02*
X177657002Y-82281220D01*
X177628336Y-82290775D01*
X177609226Y-82290775D01*
X177580560Y-82281220D01*
X177561449Y-82262109D01*
X177551894Y-82242999D01*
X177542339Y-82204778D01*
X177542339Y-82176112D01*
X177551894Y-82137891D01*
X177561449Y-82118780D01*
X177580560Y-82099670D01*
X177609226Y-82090115D01*
X177628336Y-82090115D01*
X177657002Y-82099670D01*
X177666557Y-82109225D01*
X177857662Y-82290775D02*
X177742999Y-82290775D01*
X177800330Y-82290775D02*
X177800330Y-82090115D01*
X177781220Y-82118780D01*
X177762109Y-82137891D01*
X177742999Y-82147446D01*
X179466557Y-75471664D02*
X179457002Y-75481220D01*
X179428336Y-75490775D01*
X179409226Y-75490775D01*
X179380560Y-75481220D01*
X179361449Y-75462109D01*
X179351894Y-75442999D01*
X179342339Y-75404778D01*
X179342339Y-75376112D01*
X179351894Y-75337891D01*
X179361449Y-75318780D01*
X179380560Y-75299670D01*
X179409226Y-75290115D01*
X179428336Y-75290115D01*
X179457002Y-75299670D01*
X179466557Y-75309225D01*
X179542999Y-75309225D02*
X179552554Y-75299670D01*
X179571665Y-75290115D01*
X179619441Y-75290115D01*
X179638551Y-75299670D01*
X179648107Y-75309225D01*
X179657662Y-75328336D01*
X179657662Y-75347446D01*
X179648107Y-75376112D01*
X179533444Y-75490775D01*
X179657662Y-75490775D01*
X181666557Y-75736664D02*
X181657002Y-75746220D01*
X181628336Y-75755775D01*
X181609226Y-75755775D01*
X181580560Y-75746220D01*
X181561449Y-75727109D01*
X181551894Y-75707999D01*
X181542339Y-75669778D01*
X181542339Y-75641112D01*
X181551894Y-75602891D01*
X181561449Y-75583780D01*
X181580560Y-75564670D01*
X181609226Y-75555115D01*
X181628336Y-75555115D01*
X181657002Y-75564670D01*
X181666557Y-75574225D01*
X181733444Y-75555115D02*
X181857662Y-75555115D01*
X181790775Y-75631557D01*
X181819441Y-75631557D01*
X181838551Y-75641112D01*
X181848107Y-75650667D01*
X181857662Y-75669778D01*
X181857662Y-75717554D01*
X181848107Y-75736664D01*
X181838551Y-75746220D01*
X181819441Y-75755775D01*
X181762109Y-75755775D01*
X181742999Y-75746220D01*
X181733444Y-75736664D01*
X177666557Y-79271664D02*
X177657002Y-79281220D01*
X177628336Y-79290775D01*
X177609226Y-79290775D01*
X177580560Y-79281220D01*
X177561449Y-79262109D01*
X177551894Y-79242999D01*
X177542339Y-79204778D01*
X177542339Y-79176112D01*
X177551894Y-79137891D01*
X177561449Y-79118780D01*
X177580560Y-79099670D01*
X177609226Y-79090115D01*
X177628336Y-79090115D01*
X177657002Y-79099670D01*
X177666557Y-79109225D01*
X177838551Y-79157001D02*
X177838551Y-79290775D01*
X177790775Y-79080560D02*
X177742999Y-79223888D01*
X177867217Y-79223888D01*
X177666557Y-80771664D02*
X177657002Y-80781220D01*
X177628336Y-80790775D01*
X177609226Y-80790775D01*
X177580560Y-80781220D01*
X177561449Y-80762109D01*
X177551894Y-80742999D01*
X177542339Y-80704778D01*
X177542339Y-80676112D01*
X177551894Y-80637891D01*
X177561449Y-80618780D01*
X177580560Y-80599670D01*
X177609226Y-80590115D01*
X177628336Y-80590115D01*
X177657002Y-80599670D01*
X177666557Y-80609225D01*
X177848107Y-80590115D02*
X177752554Y-80590115D01*
X177742999Y-80685667D01*
X177752554Y-80676112D01*
X177771665Y-80666557D01*
X177819441Y-80666557D01*
X177838551Y-80676112D01*
X177848107Y-80685667D01*
X177857662Y-80704778D01*
X177857662Y-80752554D01*
X177848107Y-80771664D01*
X177838551Y-80781220D01*
X177819441Y-80790775D01*
X177771665Y-80790775D01*
X177752554Y-80781220D01*
X177742999Y-80771664D01*
X188706557Y-74341664D02*
X188697002Y-74351220D01*
X188668336Y-74360775D01*
X188649226Y-74360775D01*
X188620560Y-74351220D01*
X188601449Y-74332109D01*
X188591894Y-74312999D01*
X188582339Y-74274778D01*
X188582339Y-74246112D01*
X188591894Y-74207891D01*
X188601449Y-74188780D01*
X188620560Y-74169670D01*
X188649226Y-74160115D01*
X188668336Y-74160115D01*
X188697002Y-74169670D01*
X188706557Y-74179225D01*
X188878551Y-74160115D02*
X188840330Y-74160115D01*
X188821220Y-74169670D01*
X188811665Y-74179225D01*
X188792554Y-74207891D01*
X188782999Y-74246112D01*
X188782999Y-74322554D01*
X188792554Y-74341664D01*
X188802109Y-74351220D01*
X188821220Y-74360775D01*
X188859441Y-74360775D01*
X188878551Y-74351220D01*
X188888107Y-74341664D01*
X188897662Y-74322554D01*
X188897662Y-74274778D01*
X188888107Y-74255667D01*
X188878551Y-74246112D01*
X188859441Y-74236557D01*
X188821220Y-74236557D01*
X188802109Y-74246112D01*
X188792554Y-74255667D01*
X188782999Y-74274778D01*
X181666557Y-74236664D02*
X181657002Y-74246220D01*
X181628336Y-74255775D01*
X181609226Y-74255775D01*
X181580560Y-74246220D01*
X181561449Y-74227109D01*
X181551894Y-74207999D01*
X181542339Y-74169778D01*
X181542339Y-74141112D01*
X181551894Y-74102891D01*
X181561449Y-74083780D01*
X181580560Y-74064670D01*
X181609226Y-74055115D01*
X181628336Y-74055115D01*
X181657002Y-74064670D01*
X181666557Y-74074225D01*
X181733444Y-74055115D02*
X181867217Y-74055115D01*
X181781220Y-74255775D01*
D15*
X169390115Y-82566886D02*
X169533443Y-82566886D01*
X169562109Y-82576442D01*
X169581220Y-82595552D01*
X169590775Y-82624218D01*
X169590775Y-82643328D01*
X169590775Y-82366226D02*
X169590775Y-82480889D01*
X169590775Y-82423558D02*
X169390115Y-82423558D01*
X169418780Y-82442668D01*
X169437891Y-82461779D01*
X169447446Y-82480889D01*
D14*
X177966557Y-75490775D02*
X177899670Y-75395222D01*
X177851894Y-75490775D02*
X177851894Y-75290115D01*
X177928336Y-75290115D01*
X177947447Y-75299670D01*
X177957002Y-75309225D01*
X177966557Y-75328336D01*
X177966557Y-75357001D01*
X177957002Y-75376112D01*
X177947447Y-75385667D01*
X177928336Y-75395222D01*
X177851894Y-75395222D01*
X178042999Y-75309225D02*
X178052554Y-75299670D01*
X178071665Y-75290115D01*
X178119441Y-75290115D01*
X178138551Y-75299670D01*
X178148107Y-75309225D01*
X178157662Y-75328336D01*
X178157662Y-75347446D01*
X178148107Y-75376112D01*
X178033444Y-75490775D01*
X178157662Y-75490775D01*
X176286557Y-85790375D02*
X176219670Y-85694822D01*
X176171894Y-85790375D02*
X176171894Y-85589715D01*
X176248336Y-85589715D01*
X176267447Y-85599270D01*
X176277002Y-85608825D01*
X176286557Y-85627936D01*
X176286557Y-85656601D01*
X176277002Y-85675712D01*
X176267447Y-85685267D01*
X176248336Y-85694822D01*
X176171894Y-85694822D01*
X176353444Y-85589715D02*
X176477662Y-85589715D01*
X176410775Y-85666157D01*
X176439441Y-85666157D01*
X176458551Y-85675712D01*
X176468107Y-85685267D01*
X176477662Y-85704378D01*
X176477662Y-85752154D01*
X176468107Y-85771264D01*
X176458551Y-85780820D01*
X176439441Y-85790375D01*
X176382109Y-85790375D01*
X176362999Y-85780820D01*
X176353444Y-85771264D01*
X176296557Y-84300375D02*
X176229670Y-84204822D01*
X176181894Y-84300375D02*
X176181894Y-84099715D01*
X176258336Y-84099715D01*
X176277447Y-84109270D01*
X176287002Y-84118825D01*
X176296557Y-84137936D01*
X176296557Y-84166601D01*
X176287002Y-84185712D01*
X176277447Y-84195267D01*
X176258336Y-84204822D01*
X176181894Y-84204822D01*
X176468551Y-84166601D02*
X176468551Y-84300375D01*
X176420775Y-84090160D02*
X176372999Y-84233488D01*
X176497217Y-84233488D01*
D15*
X172632453Y-78981220D02*
X172661119Y-78990775D01*
X172708895Y-78990775D01*
X172728005Y-78981220D01*
X172737561Y-78971664D01*
X172747116Y-78952554D01*
X172747116Y-78933443D01*
X172737561Y-78914333D01*
X172728005Y-78904778D01*
X172708895Y-78895222D01*
X172670674Y-78885667D01*
X172651563Y-78876112D01*
X172642008Y-78866557D01*
X172632453Y-78847446D01*
X172632453Y-78828336D01*
X172642008Y-78809225D01*
X172651563Y-78799670D01*
X172670674Y-78790115D01*
X172718450Y-78790115D01*
X172747116Y-78799670D01*
X172814003Y-78790115D02*
X172861779Y-78990775D01*
X172900000Y-78847446D01*
X172938221Y-78990775D01*
X172985997Y-78790115D01*
X173167547Y-78990775D02*
X173052884Y-78990775D01*
X173110215Y-78990775D02*
X173110215Y-78790115D01*
X173091105Y-78818780D01*
X173071994Y-78837891D01*
X173052884Y-78847446D01*
X172288464Y-76681220D02*
X172317130Y-76690775D01*
X172364906Y-76690775D01*
X172384016Y-76681220D01*
X172393572Y-76671664D01*
X172403127Y-76652554D01*
X172403127Y-76633443D01*
X172393572Y-76614333D01*
X172384016Y-76604778D01*
X172364906Y-76595222D01*
X172326685Y-76585667D01*
X172307574Y-76576112D01*
X172298019Y-76566557D01*
X172288464Y-76547446D01*
X172288464Y-76528336D01*
X172298019Y-76509225D01*
X172307574Y-76499670D01*
X172326685Y-76490115D01*
X172374461Y-76490115D01*
X172403127Y-76499670D01*
X172470014Y-76490115D02*
X172517790Y-76690775D01*
X172556011Y-76547446D01*
X172594232Y-76690775D01*
X172642008Y-76490115D01*
X172670674Y-76709885D02*
X172823558Y-76709885D01*
X172871334Y-76690775D02*
X172871334Y-76490115D01*
X172947776Y-76490115D01*
X172966887Y-76499670D01*
X172976442Y-76509225D01*
X172985997Y-76528336D01*
X172985997Y-76557001D01*
X172976442Y-76576112D01*
X172966887Y-76585667D01*
X172947776Y-76595222D01*
X172871334Y-76595222D01*
X173157991Y-76557001D02*
X173157991Y-76690775D01*
X173071994Y-76557001D02*
X173071994Y-76662109D01*
X173081549Y-76681220D01*
X173100660Y-76690775D01*
X173129326Y-76690775D01*
X173148436Y-76681220D01*
X173157991Y-76671664D01*
X173243989Y-76681220D02*
X173263099Y-76690775D01*
X173301320Y-76690775D01*
X173320431Y-76681220D01*
X173329986Y-76662109D01*
X173329986Y-76652554D01*
X173320431Y-76633443D01*
X173301320Y-76623888D01*
X173272655Y-76623888D01*
X173253544Y-76614333D01*
X173243989Y-76595222D01*
X173243989Y-76585667D01*
X173253544Y-76566557D01*
X173272655Y-76557001D01*
X173301320Y-76557001D01*
X173320431Y-76566557D01*
X173415983Y-76690775D02*
X173415983Y-76490115D01*
X173501980Y-76690775D02*
X173501980Y-76585667D01*
X173492425Y-76566557D01*
X173473315Y-76557001D01*
X173444649Y-76557001D01*
X173425538Y-76566557D01*
X173415983Y-76576112D01*
X184947116Y-79890115D02*
X184947116Y-80052554D01*
X184956671Y-80071664D01*
X184966227Y-80081220D01*
X184985337Y-80090775D01*
X185023558Y-80090775D01*
X185042669Y-80081220D01*
X185052224Y-80071664D01*
X185061779Y-80052554D01*
X185061779Y-79890115D01*
X185262439Y-80090775D02*
X185147776Y-80090775D01*
X185205107Y-80090775D02*
X185205107Y-79890115D01*
X185185997Y-79918780D01*
X185166886Y-79937891D01*
X185147776Y-79947446D01*
X184924705Y-79681220D02*
X184953371Y-79690775D01*
X185001147Y-79690775D01*
X185020257Y-79681220D01*
X185029813Y-79671664D01*
X185039368Y-79652554D01*
X185039368Y-79633443D01*
X185029813Y-79614333D01*
X185020257Y-79604778D01*
X185001147Y-79595222D01*
X184962926Y-79585667D01*
X184943815Y-79576112D01*
X184934260Y-79566557D01*
X184924705Y-79547446D01*
X184924705Y-79528336D01*
X184934260Y-79509225D01*
X184943815Y-79499670D01*
X184962926Y-79490115D01*
X185010702Y-79490115D01*
X185039368Y-79499670D01*
X185096699Y-79490115D02*
X185211362Y-79490115D01*
X185154031Y-79690775D02*
X185154031Y-79490115D01*
X185278249Y-79690775D02*
X185278249Y-79490115D01*
X185345136Y-79633443D01*
X185412023Y-79490115D01*
X185412023Y-79690775D01*
X185488465Y-79490115D02*
X185612683Y-79490115D01*
X185545796Y-79566557D01*
X185574462Y-79566557D01*
X185593572Y-79576112D01*
X185603128Y-79585667D01*
X185612683Y-79604778D01*
X185612683Y-79652554D01*
X185603128Y-79671664D01*
X185593572Y-79681220D01*
X185574462Y-79690775D01*
X185517130Y-79690775D01*
X185498020Y-79681220D01*
X185488465Y-79671664D01*
X185689125Y-79509225D02*
X185698680Y-79499670D01*
X185717791Y-79490115D01*
X185765567Y-79490115D01*
X185784677Y-79499670D01*
X185794233Y-79509225D01*
X185803788Y-79528336D01*
X185803788Y-79547446D01*
X185794233Y-79576112D01*
X185679570Y-79690775D01*
X185803788Y-79690775D01*
X185956672Y-79585667D02*
X185889785Y-79585667D01*
X185889785Y-79690775D02*
X185889785Y-79490115D01*
X185985338Y-79490115D01*
X186100000Y-79490115D02*
X186119111Y-79490115D01*
X186138221Y-79499670D01*
X186147776Y-79509225D01*
X186157332Y-79528336D01*
X186166887Y-79566557D01*
X186166887Y-79614333D01*
X186157332Y-79652554D01*
X186147776Y-79671664D01*
X186138221Y-79681220D01*
X186119111Y-79690775D01*
X186100000Y-79690775D01*
X186080890Y-79681220D01*
X186071334Y-79671664D01*
X186061779Y-79652554D01*
X186052224Y-79614333D01*
X186052224Y-79566557D01*
X186061779Y-79528336D01*
X186071334Y-79509225D01*
X186080890Y-79499670D01*
X186100000Y-79490115D01*
X186233774Y-79490115D02*
X186367547Y-79490115D01*
X186281550Y-79690775D01*
X186482210Y-79490115D02*
X186501321Y-79490115D01*
X186520431Y-79499670D01*
X186529986Y-79509225D01*
X186539542Y-79528336D01*
X186549097Y-79566557D01*
X186549097Y-79614333D01*
X186539542Y-79652554D01*
X186529986Y-79671664D01*
X186520431Y-79681220D01*
X186501321Y-79690775D01*
X186482210Y-79690775D01*
X186463100Y-79681220D01*
X186453544Y-79671664D01*
X186443989Y-79652554D01*
X186434434Y-79614333D01*
X186434434Y-79566557D01*
X186443989Y-79528336D01*
X186453544Y-79509225D01*
X186463100Y-79499670D01*
X186482210Y-79490115D01*
X186701981Y-79585667D02*
X186635094Y-79585667D01*
X186635094Y-79690775D02*
X186635094Y-79490115D01*
X186730647Y-79490115D01*
X186893085Y-79490115D02*
X186854864Y-79490115D01*
X186835754Y-79499670D01*
X186826199Y-79509225D01*
X186807088Y-79537891D01*
X186797533Y-79576112D01*
X186797533Y-79652554D01*
X186807088Y-79671664D01*
X186816643Y-79681220D01*
X186835754Y-79690775D01*
X186873975Y-79690775D01*
X186893085Y-79681220D01*
X186902641Y-79671664D01*
X186912196Y-79652554D01*
X186912196Y-79604778D01*
X186902641Y-79585667D01*
X186893085Y-79576112D01*
X186873975Y-79566557D01*
X186835754Y-79566557D01*
X186816643Y-79576112D01*
X186807088Y-79585667D01*
X186797533Y-79604778D01*
X186998193Y-79690775D02*
X186998193Y-79490115D01*
X187074635Y-79490115D01*
X187093746Y-79499670D01*
X187103301Y-79509225D01*
X187112856Y-79528336D01*
X187112856Y-79557001D01*
X187103301Y-79576112D01*
X187093746Y-79585667D01*
X187074635Y-79595222D01*
X186998193Y-79595222D01*
X187179743Y-79690775D02*
X187284850Y-79557001D01*
X187179743Y-79557001D02*
X187284850Y-79690775D01*
X188823114Y-85200115D02*
X188823114Y-85343443D01*
X188813558Y-85372109D01*
X188794448Y-85391220D01*
X188765782Y-85400775D01*
X188746672Y-85400775D01*
X188909111Y-85219225D02*
X188918666Y-85209670D01*
X188937777Y-85200115D01*
X188985553Y-85200115D01*
X189004663Y-85209670D01*
X189014219Y-85219225D01*
X189023774Y-85238336D01*
X189023774Y-85257446D01*
X189014219Y-85286112D01*
X188899556Y-85400775D01*
X189023774Y-85400775D01*
D16*
X178647557Y-84261355D02*
X178647557Y-83661915D01*
X178790281Y-83661915D01*
X178875915Y-83690460D01*
X178933004Y-83747550D01*
X178961549Y-83804639D01*
X178990094Y-83918818D01*
X178990094Y-84004452D01*
X178961549Y-84118631D01*
X178933004Y-84175721D01*
X178875915Y-84232810D01*
X178790281Y-84261355D01*
X178647557Y-84261355D01*
X179560989Y-84261355D02*
X179218452Y-84261355D01*
X179389721Y-84261355D02*
X179389721Y-83661915D01*
X179332631Y-83747550D01*
X179275542Y-83804639D01*
X179218452Y-83833184D01*
X178704646Y-86560055D02*
X178419199Y-86560055D01*
X178419199Y-85960615D01*
X178904460Y-86246063D02*
X179104273Y-86246063D01*
X179189907Y-86560055D02*
X178904460Y-86560055D01*
X178904460Y-85960615D01*
X179189907Y-85960615D01*
X179446810Y-86560055D02*
X179446810Y-85960615D01*
X179589534Y-85960615D01*
X179675168Y-85989160D01*
X179732257Y-86046250D01*
X179760802Y-86103339D01*
X179789347Y-86217518D01*
X179789347Y-86303152D01*
X179760802Y-86417331D01*
X179732257Y-86474421D01*
X179675168Y-86531510D01*
X179589534Y-86560055D01*
X179446810Y-86560055D01*
X178617557Y-82971355D02*
X178617557Y-82371915D01*
X178760281Y-82371915D01*
X178845915Y-82400460D01*
X178903004Y-82457550D01*
X178931549Y-82514639D01*
X178960094Y-82628818D01*
X178960094Y-82714452D01*
X178931549Y-82828631D01*
X178903004Y-82885721D01*
X178845915Y-82942810D01*
X178760281Y-82971355D01*
X178617557Y-82971355D01*
X179188452Y-82429005D02*
X179216997Y-82400460D01*
X179274086Y-82371915D01*
X179416810Y-82371915D01*
X179473900Y-82400460D01*
X179502444Y-82429005D01*
X179530989Y-82486094D01*
X179530989Y-82543184D01*
X179502444Y-82628818D01*
X179159907Y-82971355D01*
X179530989Y-82971355D01*
X178674646Y-85270055D02*
X178389199Y-85270055D01*
X178389199Y-84670615D01*
X178874460Y-84956063D02*
X179074273Y-84956063D01*
X179159907Y-85270055D02*
X178874460Y-85270055D01*
X178874460Y-84670615D01*
X179159907Y-84670615D01*
X179416810Y-85270055D02*
X179416810Y-84670615D01*
X179559534Y-84670615D01*
X179645168Y-84699160D01*
X179702257Y-84756250D01*
X179730802Y-84813339D01*
X179759347Y-84927518D01*
X179759347Y-85013152D01*
X179730802Y-85127331D01*
X179702257Y-85184421D01*
X179645168Y-85241510D01*
X179559534Y-85270055D01*
X179416810Y-85270055D01*
D10*
X182836190Y-75850952D02*
X183240952Y-75850952D01*
X183288571Y-75827143D01*
X183312381Y-75803333D01*
X183336190Y-75755714D01*
X183336190Y-75660476D01*
X183312381Y-75612857D01*
X183288571Y-75589048D01*
X183240952Y-75565238D01*
X182836190Y-75565238D01*
X182836190Y-75374761D02*
X182836190Y-75065238D01*
X183026667Y-75231904D01*
X183026667Y-75160476D01*
X183050476Y-75112857D01*
X183074286Y-75089047D01*
X183121905Y-75065238D01*
X183240952Y-75065238D01*
X183288571Y-75089047D01*
X183312381Y-75112857D01*
X183336190Y-75160476D01*
X183336190Y-75303333D01*
X183312381Y-75350952D01*
X183288571Y-75374761D01*
X187536190Y-79934283D02*
X187036190Y-79934283D01*
X187393333Y-79767617D01*
X187036190Y-79600950D01*
X187536190Y-79600950D01*
X187488571Y-79077140D02*
X187512381Y-79100950D01*
X187536190Y-79172378D01*
X187536190Y-79219997D01*
X187512381Y-79291426D01*
X187464762Y-79339045D01*
X187417143Y-79362854D01*
X187321905Y-79386664D01*
X187250476Y-79386664D01*
X187155238Y-79362854D01*
X187107619Y-79339045D01*
X187060000Y-79291426D01*
X187036190Y-79219997D01*
X187036190Y-79172378D01*
X187060000Y-79100950D01*
X187083810Y-79077140D01*
X187536190Y-78862854D02*
X187036190Y-78862854D01*
X187036190Y-78672378D01*
X187060000Y-78624759D01*
X187083810Y-78600950D01*
X187131429Y-78577140D01*
X187202857Y-78577140D01*
X187250476Y-78600950D01*
X187274286Y-78624759D01*
X187298095Y-78672378D01*
X187298095Y-78862854D01*
X187536190Y-78100950D02*
X187536190Y-78386664D01*
X187536190Y-78243807D02*
X187036190Y-78243807D01*
X187107619Y-78291426D01*
X187155238Y-78339045D01*
X187179048Y-78386664D01*
X187036190Y-77934283D02*
X187036190Y-77600950D01*
X187536190Y-77815236D01*
X187036190Y-77315236D02*
X187036190Y-77267617D01*
X187060000Y-77219998D01*
X187083810Y-77196189D01*
X187131429Y-77172379D01*
X187226667Y-77148570D01*
X187345714Y-77148570D01*
X187440952Y-77172379D01*
X187488571Y-77196189D01*
X187512381Y-77219998D01*
X187536190Y-77267617D01*
X187536190Y-77315236D01*
X187512381Y-77362855D01*
X187488571Y-77386665D01*
X187440952Y-77410474D01*
X187345714Y-77434284D01*
X187226667Y-77434284D01*
X187131429Y-77410474D01*
X187083810Y-77386665D01*
X187060000Y-77362855D01*
X187036190Y-77315236D01*
X187036190Y-76839046D02*
X187036190Y-76791427D01*
X187060000Y-76743808D01*
X187083810Y-76719999D01*
X187131429Y-76696189D01*
X187226667Y-76672380D01*
X187345714Y-76672380D01*
X187440952Y-76696189D01*
X187488571Y-76719999D01*
X187512381Y-76743808D01*
X187536190Y-76791427D01*
X187536190Y-76839046D01*
X187512381Y-76886665D01*
X187488571Y-76910475D01*
X187440952Y-76934284D01*
X187345714Y-76958094D01*
X187226667Y-76958094D01*
X187131429Y-76934284D01*
X187083810Y-76910475D01*
X187060000Y-76886665D01*
X187036190Y-76839046D01*
X187345714Y-76458094D02*
X187345714Y-76077142D01*
X187036190Y-75886665D02*
X187036190Y-75577142D01*
X187226667Y-75743808D01*
X187226667Y-75672380D01*
X187250476Y-75624761D01*
X187274286Y-75600951D01*
X187321905Y-75577142D01*
X187440952Y-75577142D01*
X187488571Y-75600951D01*
X187512381Y-75624761D01*
X187536190Y-75672380D01*
X187536190Y-75815237D01*
X187512381Y-75862856D01*
X187488571Y-75886665D01*
X187036190Y-75410475D02*
X187036190Y-75100952D01*
X187226667Y-75267618D01*
X187226667Y-75196190D01*
X187250476Y-75148571D01*
X187274286Y-75124761D01*
X187321905Y-75100952D01*
X187440952Y-75100952D01*
X187488571Y-75124761D01*
X187512381Y-75148571D01*
X187536190Y-75196190D01*
X187536190Y-75339047D01*
X187512381Y-75386666D01*
X187488571Y-75410475D01*
X187036190Y-74791428D02*
X187036190Y-74743809D01*
X187060000Y-74696190D01*
X187083810Y-74672381D01*
X187131429Y-74648571D01*
X187226667Y-74624762D01*
X187345714Y-74624762D01*
X187440952Y-74648571D01*
X187488571Y-74672381D01*
X187512381Y-74696190D01*
X187536190Y-74743809D01*
X187536190Y-74791428D01*
X187512381Y-74839047D01*
X187488571Y-74862857D01*
X187440952Y-74886666D01*
X187345714Y-74910476D01*
X187226667Y-74910476D01*
X187131429Y-74886666D01*
X187083810Y-74862857D01*
X187060000Y-74839047D01*
X187036190Y-74791428D01*
X187083810Y-74434286D02*
X187060000Y-74410476D01*
X187036190Y-74362857D01*
X187036190Y-74243810D01*
X187060000Y-74196191D01*
X187083810Y-74172381D01*
X187131429Y-74148572D01*
X187179048Y-74148572D01*
X187250476Y-74172381D01*
X187536190Y-74458095D01*
X187536190Y-74148572D01*
X187274286Y-73934286D02*
X187274286Y-73767620D01*
X187536190Y-73696191D02*
X187536190Y-73934286D01*
X187036190Y-73934286D01*
X187036190Y-73696191D01*
X187583810Y-73600953D02*
X187583810Y-73220001D01*
X187512381Y-73124763D02*
X187536190Y-73053334D01*
X187536190Y-72934287D01*
X187512381Y-72886668D01*
X187488571Y-72862858D01*
X187440952Y-72839049D01*
X187393333Y-72839049D01*
X187345714Y-72862858D01*
X187321905Y-72886668D01*
X187298095Y-72934287D01*
X187274286Y-73029525D01*
X187250476Y-73077144D01*
X187226667Y-73100953D01*
X187179048Y-73124763D01*
X187131429Y-73124763D01*
X187083810Y-73100953D01*
X187060000Y-73077144D01*
X187036190Y-73029525D01*
X187036190Y-72910477D01*
X187060000Y-72839049D01*
X187036190Y-72529525D02*
X187036190Y-72434287D01*
X187060000Y-72386668D01*
X187107619Y-72339049D01*
X187202857Y-72315240D01*
X187369524Y-72315240D01*
X187464762Y-72339049D01*
X187512381Y-72386668D01*
X187536190Y-72434287D01*
X187536190Y-72529525D01*
X187512381Y-72577144D01*
X187464762Y-72624763D01*
X187369524Y-72648573D01*
X187202857Y-72648573D01*
X187107619Y-72624763D01*
X187060000Y-72577144D01*
X187036190Y-72529525D01*
X187036190Y-72172382D02*
X187036190Y-71886668D01*
X187536190Y-72029525D02*
X187036190Y-72029525D01*
X187083810Y-71743811D02*
X187060000Y-71720001D01*
X187036190Y-71672382D01*
X187036190Y-71553335D01*
X187060000Y-71505716D01*
X187083810Y-71481906D01*
X187131429Y-71458097D01*
X187179048Y-71458097D01*
X187250476Y-71481906D01*
X187536190Y-71767620D01*
X187536190Y-71458097D01*
X187036190Y-71291430D02*
X187036190Y-70981907D01*
X187226667Y-71148573D01*
X187226667Y-71077145D01*
X187250476Y-71029526D01*
X187274286Y-71005716D01*
X187321905Y-70981907D01*
X187440952Y-70981907D01*
X187488571Y-71005716D01*
X187512381Y-71029526D01*
X187536190Y-71077145D01*
X187536190Y-71220002D01*
X187512381Y-71267621D01*
X187488571Y-71291430D01*
M02*
